<svg width="30" height="30" viewBox="0 0 30 30" fill="none" xmlns="http://www.w3.org/2000/svg">
<path fill-rule="evenodd" clip-rule="evenodd" d="M25 7V3H5V7H1V12C1 14.419 2.71776 16.4367 5 16.9V27H25V16.9C27.2822 16.4367 29 14.419 29 12V7H25ZM23 5H7V7H23V5ZM23 16.9C22.2611 16.75 21.5814 16.4371 21 16.0004C20.1643 16.6281 19.1256 17 18 17C16.8744 17 15.8357 16.6281 15 16.0004C14.1643 16.6281 13.1256 17 12 17C10.8744 17 9.83566 16.6281 9 16.0004C8.41859 16.4371 7.73888 16.75 7 16.9V25H11V19H19V25H23V16.9ZM17 25V21H13V25H17ZM9 13.499L10.2012 14.4012C10.7024 14.7777 11.3223 15 12 15C12.6777 15 13.2976 14.7777 13.7988 14.4012L15 13.499L16.2012 14.4012C16.7024 14.7777 17.3223 15 18 15C18.6777 15 19.2976 14.7777 19.7988 14.4012L21 13.499L22.2012 14.4012C22.7024 14.7777 23.3223 15 24 15C25.6569 15 27 13.6569 27 12V9H3V12C3 13.6569 4.34315 15 6 15C6.67766 15 7.29764 14.7777 7.79884 14.4012L9 13.499Z" fill="#181818"/>
</svg>
